<svg width="120" height="65" viewBox="0 0 120 65" fill="none" xmlns="http://www.w3.org/2000/svg">
<g id="g7036">
<path id="path5127" d="M13.199 30.9508C17.7145 34.8571 8.2858 49.8864 13.277 54.2839C18.2683 58.6814 24.483 58.435 29.0619 54.5344C33.6407 50.6339 25.1145 38.2521 29.0619 34.8273C33.0092 31.4026 35.7582 31.2845 39.8418 34.8273C43.9253 38.3702 42.6802 51.0727 40.0075 55.5365C37.3348 60.0003 37.2037 60.2242 32.1418 62.2169C27.08 64.2095 14.8376 64.092 9.61959 62.2169C4.40153 60.3417 4.33964 60.3181 1.58281 55.2442C-2.04689 46.1667 0.0640123 20.4245 13.199 30.9508Z" fill="#133C46"/>
<path id="path5129" d="M57.1709 62.1333C53.558 65.2973 52.0729 66.5618 46.9685 62.1333C41.8642 57.7048 44.7183 37.6853 46.9685 33.4078C49.2188 29.1302 49.1434 29.1068 52.1937 28.0106C55.244 26.9144 62.2626 26.6774 64.4859 28.6062C66.7091 30.5351 65.9888 33.2729 64.4859 34.5768C62.9829 35.8808 59.9379 34.1013 58.6147 34.5768C57.2914 35.0523 57.0475 35.4975 56.6897 36.2469C56.3319 36.9963 55.442 37.6695 56.6897 38.752C57.9374 39.8346 62.7335 37.3152 64.3896 38.752C66.0457 40.1888 66.0117 42.8561 64.3896 44.2634C62.7676 45.6706 60.2639 41.3862 56.9785 44.2634C53.693 47.1406 60.7838 58.9694 57.1709 62.1333Z" fill="#133C46"/>
<path id="path5131" d="M77.517 62.816C80.9993 59.7948 75.767 47.6049 77.2826 44.4304C79.4298 42.0724 79.4802 42.1285 82.6329 42.8467C84.2917 43.2246 87.3396 45.6186 88.9181 44.8279C90.4966 44.0372 90.3988 41.2089 89.4281 40.3386C88.4574 39.4683 88.4497 39.4849 86.0544 38.6487C83.6592 37.8126 77.4029 37.4987 74.2026 38.6487C71.0024 39.7988 69.7741 40.1754 67.8869 44.1282C65.9997 48.081 69.5438 61.6212 66.1291 62.2705C66.2499 63.6155 76.7361 63.4252 77.517 62.816Z" fill="#133C46"/>
<path id="path5133" d="M95.6661 44.3469C94.5673 43.4804 92.8304 40.8783 95.6661 38.418C98.5019 35.9578 109.016 37.0241 112.895 38.418C116.774 39.812 116.915 39.9313 118.525 43.3031C120.135 46.6748 120.819 54.8458 118.525 58.2921C116.232 61.7385 113.709 61.7933 109.653 62.7362C105.597 63.679 98.1207 64.4477 94.7037 62.7362C91.2867 61.0246 90.8662 57.8799 90.3416 56.1812C89.8169 54.4825 89.7129 54.5152 90.3416 53.1984C90.9703 51.8815 92.7195 50.3428 94.8807 49.2603C97.042 48.1777 100.532 47.6377 103.144 47.3394C105.755 47.0411 110.747 45.388 110.821 47.1742C110.895 48.9604 110.899 48.9631 110.759 50.5912C106.698 50.9618 100.361 50.7526 99.3609 52.2076C98.5313 53.3577 98.7851 54.7215 99.3609 55.9276C99.9367 57.1336 101.346 58.3445 102.713 58.8356C104.079 59.3267 105.59 59.2874 106.847 58.8356C108.105 58.3838 108.512 58.8455 109.697 56.3631C110.883 53.8801 111.257 46.0788 109.697 43.7345C108.137 41.3901 107.787 41.4851 106.442 41.267C105.097 41.0488 103.677 41.589 102.219 41.9278C100.762 42.2666 98.8845 44.1671 97.7691 44.5502C96.6538 44.9334 96.765 45.2133 95.6661 44.3469Z" fill="#133C46"/>
<g id="g5139">
<path id="path5135" d="M54.2062 3.05176e-05C54.2062 3.05176e-05 47.3725 9.01851 33.2239 10.9391C19.0753 12.8597 18.4016 20.7091 17.9203 24.6339C17.4391 28.5586 20.904 33.6524 20.904 33.6524C20.904 33.6524 23.4065 28.8926 36.1114 25.4689C48.8163 22.0452 53.4362 13.5277 54.5912 10.0206C55.7462 6.51336 54.2062 3.05176e-05 54.2062 3.05176e-05Z" fill="url(#paint0_linear_1_15)"/>
<path id="path5137" d="M26.5565 23.1332C26.5565 23.4183 26.4918 23.7007 26.366 23.9641C26.2402 24.2275 26.0559 24.4669 25.8236 24.6685C25.5912 24.8701 25.3153 25.03 25.0117 25.1391C24.7081 25.2482 24.3827 25.3043 24.054 25.3043C23.3903 25.3043 22.7538 25.0756 22.2845 24.6685C21.8152 24.2613 21.5516 23.709 21.5516 23.1332C21.5516 22.8481 21.6163 22.5658 21.7421 22.3024C21.8678 22.039 22.0521 21.7996 22.2845 21.598C22.5169 21.3964 22.7928 21.2365 23.0964 21.1274C23.4 21.0183 23.7254 20.9621 24.054 20.9621C24.3827 20.9621 24.708 21.0183 25.0117 21.1274C25.3153 21.2365 25.5912 21.3964 25.8236 21.598C26.0559 21.7996 26.2402 22.039 26.366 22.3024C26.4918 22.5658 26.5565 22.8481 26.5565 23.1332Z" fill="url(#paint1_linear_1_15)"/>
</g>
</g>
<defs>
<linearGradient id="paint0_linear_1_15" x1="14.0342" y1="29.0962" x2="59.8111" y2="-3.00348" gradientUnits="userSpaceOnUse">
<stop stop-color="#00662B"/>
<stop offset="1" stop-color="#00662B" stop-opacity="0"/>
</linearGradient>
<linearGradient id="paint1_linear_1_15" x1="14.0343" y1="29.0961" x2="59.8108" y2="-3.00329" gradientUnits="userSpaceOnUse">
<stop stop-color="#00662B"/>
<stop offset="1" stop-color="#00662B" stop-opacity="0"/>
</linearGradient>
</defs>
</svg>
